<?xml version="1.0" standalone="no"?>
<!DOCTYPE svg PUBLIC "-//W3C//DTD SVG 20010904//EN"
 "http://www.w3.org/TR/2001/REC-SVG-20010904/DTD/svg10.dtd">
<svg version="1.0" xmlns="http://www.w3.org/2000/svg"
 width="48.000000pt" height="48.000000pt" viewBox="0 0 48.000000 48.000000"
 preserveAspectRatio="xMidYMid meet">

<g transform="translate(0.000000,48.000000) scale(0.100000,-0.100000)"
fill="#000000" stroke="none">
<path d="M82 468 c-17 -17 -17 -369 0 -386 17 -17 369 -17 386 0 17 17 17 369
0 386 -17 17 -369 17 -386 0z m244 -99 c24 -11 46 -29 49 -40 9 -26 -3 -59
-21 -59 -12 0 -14 7 -9 29 5 24 2 30 -14 36 -34 11 -41 -3 -41 -79 0 -79 -9
-96 -50 -96 -33 0 -50 17 -50 51 0 31 15 46 50 51 23 3 25 7 28 66 2 34 6 62
9 62 4 0 26 -9 49 -21z"/>
<path d="M7 404 c-4 -4 -7 -92 -7 -194 0 -147 3 -190 14 -199 9 -8 72 -11 202
-9 160 3 189 5 189 18 0 13 -28 15 -182 18 l-183 2 -2 182 c-3 170 -9 204 -31
182z"/>
</g>
</svg>
